<svg width="65" height="70" viewBox="0 0 65 70" fill="none" xmlns="http://www.w3.org/2000/svg">
<circle cx="32.5" cy="37.5" r="30" fill="white" stroke="#FFAE11" stroke-width="5"/>
<path d="M30.5806 44.4581V36.3548C33.2301 35.3226 35.2086 33.9634 36.5161 32.2774C37.8237 30.5914 38.4774 28.6301 38.4774 26.3935C38.4774 24.8452 38.2022 23.5204 37.6516 22.4194C37.1355 21.2839 36.3785 20.4065 35.3806 19.7871C34.3828 19.1677 33.1613 18.8581 31.7161 18.8581C30.6151 18.8581 29.686 19.0473 28.929 19.4258C28.172 19.7699 27.7935 20.2344 27.7935 20.8194C27.7935 21.2667 27.9312 21.6968 28.2065 22.1097C28.5161 22.5226 28.8086 22.9699 29.0839 23.4516C29.3935 23.8989 29.5484 24.4323 29.5484 25.0516C29.5484 25.843 29.2731 26.4624 28.7226 26.9097C28.172 27.357 27.4323 27.5806 26.5032 27.5806C25.2989 27.5806 24.3183 27.2194 23.5613 26.4968C22.8387 25.7398 22.4774 24.7419 22.4774 23.5032C22.4774 22.1269 22.9247 20.9398 23.8194 19.9419C24.7484 18.9097 26.0215 18.1011 27.6387 17.5161C29.2559 16.9312 31.1312 16.6387 33.2645 16.6387C35.7419 16.6387 37.8925 17.0344 39.7161 17.8258C41.5742 18.5828 43.0194 19.6667 44.0516 21.0774C45.0839 22.4882 45.6 24.1398 45.6 26.0323C45.6 28.7161 44.4989 31.0387 42.2968 33C40.0946 34.9269 36.8602 36.4237 32.5935 37.4903V44.4581H30.5806ZM31.7161 57.7226C30.271 57.7226 29.1183 57.3441 28.2581 56.5871C27.4323 55.8301 27.0194 54.7978 27.0194 53.4903C27.0194 52.2172 27.4323 51.2022 28.2581 50.4452C29.1183 49.6882 30.271 49.3097 31.7161 49.3097C33.1613 49.3097 34.314 49.6882 35.1742 50.4452C36.0344 51.2022 36.4645 52.2172 36.4645 53.4903C36.4645 54.7978 36.0344 55.8301 35.1742 56.5871C34.314 57.3441 33.1613 57.7226 31.7161 57.7226Z" fill="black"/>
</svg>
