<svg width="693" height="720" viewBox="0 0 693 720" fill="none" xmlns="http://www.w3.org/2000/svg">
<path fill-rule="evenodd" clip-rule="evenodd" d="M302.882 24.8135C348.651 -25.0198 394.747 9.45474 441.001 47.426C588.756 24.8135 583.846 126.165 616.379 197.381C638.427 245.644 705.676 258.758 690.899 309.729C616.379 378.87 666.459 379.929 644.645 450.335C604.97 523.033 604.682 521.233 604.97 587.073C568.841 642.739 523.535 677.317 473.121 671.056C403.628 662.426 432.891 711.159 363.269 718.681C281.612 727.504 259.977 688.547 179.539 705.166C147.807 642.738 103.735 654.967 68.5193 614.951C48.1399 563.208 60.1467 517.826 49.7719 463.18C39.9026 411.196 -24.6426 347.795 10.2582 308.076C58.1809 253.538 4.36218 178.497 75.9833 167.045C100.534 163.12 157.479 112.368 169.732 90.696C206.194 26.2017 252.786 79.3584 302.882 24.8135Z" fill="#E7FFD9"/>
<path fill-rule="evenodd" clip-rule="evenodd" d="M307.599 57.4011C348.943 12.4127 390.583 43.5355 432.364 77.8151C565.834 57.4011 561.399 148.899 590.787 213.192C610.703 256.762 671.451 268.601 658.102 314.617C590.787 377.036 636.025 377.991 616.32 441.553C580.481 507.182 580.221 505.557 580.481 564.996C547.845 615.25 506.919 646.467 461.38 640.815C398.604 633.024 425.038 677.018 362.148 683.81C288.385 691.775 268.842 656.605 196.181 671.608C167.516 615.249 127.705 626.289 95.8948 590.164C77.4857 543.451 88.3316 502.482 78.9599 453.148C70.0447 406.218 11.7399 348.982 43.2664 313.125C86.5559 263.888 37.9404 196.144 102.637 185.805C124.814 182.261 176.254 136.443 187.322 116.878C220.259 58.6543 262.347 106.643 307.599 57.4011Z" fill="#91CD6E"/>
<path d="M425.484 613.354C475.23 631.167 578.59 561.949 581.575 521.015C583.321 497.055 556.683 465.314 586.537 435.207C609.202 412.349 623.16 378.735 605.983 338.725C590.98 303.78 573.145 301.256 557.18 281.337C530.158 247.623 547.019 205.806 543.624 186.096C534.119 130.919 514.797 124.534 464.807 105.304C427.227 90.8472 367.465 83.4144 310.805 123.192C266.723 154.14 246.774 142.937 209.074 149.357C184.936 156.927 179.777 210.214 136.616 217.649C92.05 225.326 72.0276 289.956 78.9543 301.15C78.4659 318.143 104.168 359.375 96.1852 401.176C82.6607 472 130.896 480.291 171.12 591.721C195.777 660.026 317.469 574.676 425.484 613.354Z" fill="#013714" stroke="#2F7E02" stroke-width="10"/>
</svg>
